<svg id="Layer_1" data-name="Layer 1" xmlns="http://www.w3.org/2000/svg" viewBox="0 0 232.85 232.85"><defs><style>.cls-1{fill:#d9e3f0;}</style></defs><g id="Layer_2" data-name="Layer 2"><path class="cls-1" d="M153.81,113.07c-10.08,0-16.68,7.44-16.68,18.12s6.6,18,16.68,18c10.32,0,16.44-7.44,16.44-18S164.13,113.07,153.81,113.07Z"/><path class="cls-1" d="M181.53,0H51.32A51.32,51.32,0,0,0,0,51.32V181.53a51.32,51.32,0,0,0,51.32,51.32H181.53a51.32,51.32,0,0,0,51.32-51.32V51.32A51.32,51.32,0,0,0,181.53,0Zm-103,162.63c-18.72,0-31-10-31.32-25.68H62.61c.12,7.44,6.12,11.88,16,11.88,10.2,0,16.68-4.44,16.68-11.76,0-5.88-3-9.36-10.2-10.92L71.13,123c-14.88-3.24-22.68-11.76-22.68-25.2,0-15.36,12.72-26,31.2-26,17.76,0,29,9.84,29.52,25.68H93.81c-.36-7.56-5.76-12-14.4-12-9.48,0-15.6,4.56-15.6,11.88,0,6.24,3.36,9.72,10.68,11.4l13.8,3c15,3.24,22.32,10.92,22.32,24C110.61,152.07,97.89,162.63,78.57,162.63Zm78.24,0c-8.88,0-16.44-4-19.92-10.8l-1,9.24H122.37V71.79H137v38.64c3.84-6.6,11.76-10.56,20.76-10.56,16.92,0,27.24,13.2,27.24,31.92C185,150,173.85,162.63,156.81,162.63Z"/></g></svg>